<svg width="50" height="50" viewBox="0 0 50 50" fill="none" xmlns="http://www.w3.org/2000/svg">
<path d="M24.9999 3.3335C13.0533 3.3335 3.33325 13.0535 3.33325 25.0002C3.33325 36.9468 13.0533 46.6668 24.9999 46.6668C36.9466 46.6668 46.6666 36.9468 46.6666 25.0002C46.6666 13.0535 36.9466 3.3335 24.9999 3.3335ZM19.4433 10.0002H30.5533C35.7616 10.0002 39.9999 14.2369 39.9999 19.4435V30.5535C39.9999 35.7619 35.7632 40.0002 30.5566 40.0002H19.4465C14.2382 40.0002 9.99992 35.7635 9.99992 30.5568V19.4468C9.99992 14.2384 14.2366 10.0002 19.4433 10.0002ZM19.4433 13.3335C16.0749 13.3335 13.3333 16.0768 13.3333 19.4468V30.5568C13.3333 33.9251 16.0765 36.6668 19.4465 36.6668H30.5566C33.9249 36.6668 36.6666 33.9235 36.6666 30.5535V19.4435C36.6666 16.0752 33.9233 13.3335 30.5533 13.3335H19.4433ZM32.7799 16.1102C33.3932 16.1102 33.8899 16.6069 33.8899 17.2202C33.8899 17.8335 33.3932 18.3335 32.7799 18.3335C32.1665 18.3335 31.6666 17.8335 31.6666 17.2202C31.6666 16.6069 32.1665 16.1102 32.7799 16.1102ZM24.9999 16.6668C29.5949 16.6668 33.3333 20.4052 33.3333 25.0002C33.3333 29.5952 29.5949 33.3335 24.9999 33.3335C20.4049 33.3335 16.6666 29.5952 16.6666 25.0002C16.6666 20.4052 20.4049 16.6668 24.9999 16.6668ZM24.9999 20.0002C23.6738 20.0002 22.4021 20.5269 21.4644 21.4646C20.5267 22.4023 19.9999 23.6741 19.9999 25.0002C19.9999 26.3262 20.5267 27.598 21.4644 28.5357C22.4021 29.4734 23.6738 30.0002 24.9999 30.0002C26.326 30.0002 27.5978 29.4734 28.5355 28.5357C29.4731 27.598 29.9999 26.3262 29.9999 25.0002C29.9999 23.6741 29.4731 22.4023 28.5355 21.4646C27.5978 20.5269 26.326 20.0002 24.9999 20.0002Z" fill="black"/>
</svg>
