<svg width="29" height="28" viewBox="0 0 29 28" fill="none" xmlns="http://www.w3.org/2000/svg">
<rect y="7" width="29" height="21" rx="2" fill="#4D02C7"/>
<path d="M3.732 22.12C3.076 22.12 2.448 22.028 1.848 21.844C1.248 21.652 0.772 21.408 0.42 21.112L0.96 19.9C1.296 20.164 1.712 20.384 2.208 20.56C2.704 20.736 3.212 20.824 3.732 20.824C4.172 20.824 4.528 20.776 4.8 20.68C5.072 20.584 5.272 20.456 5.4 20.296C5.528 20.128 5.592 19.94 5.592 19.732C5.592 19.476 5.5 19.272 5.316 19.12C5.132 18.96 4.892 18.836 4.596 18.748C4.308 18.652 3.984 18.564 3.624 18.484C3.272 18.404 2.916 18.312 2.556 18.208C2.204 18.096 1.88 17.956 1.584 17.788C1.296 17.612 1.06 17.38 0.876 17.092C0.692 16.804 0.6 16.436 0.6 15.988C0.6 15.532 0.72 15.116 0.96 14.74C1.208 14.356 1.58 14.052 2.076 13.828C2.58 13.596 3.216 13.48 3.984 13.48C4.488 13.48 4.988 13.544 5.484 13.672C5.98 13.8 6.412 13.984 6.78 14.224L6.288 15.436C5.912 15.212 5.524 15.048 5.124 14.944C4.724 14.832 4.34 14.776 3.972 14.776C3.54 14.776 3.188 14.828 2.916 14.932C2.652 15.036 2.456 15.172 2.328 15.34C2.208 15.508 2.148 15.7 2.148 15.916C2.148 16.172 2.236 16.38 2.412 16.54C2.596 16.692 2.832 16.812 3.12 16.9C3.416 16.988 3.744 17.076 4.104 17.164C4.464 17.244 4.82 17.336 5.172 17.44C5.532 17.544 5.856 17.68 6.144 17.848C6.44 18.016 6.676 18.244 6.852 18.532C7.036 18.82 7.128 19.184 7.128 19.624C7.128 20.072 7.004 20.488 6.756 20.872C6.516 21.248 6.144 21.552 5.64 21.784C5.136 22.008 4.5 22.12 3.732 22.12ZM9.51488 17.092H13.6909V18.376H9.51488V17.092ZM9.63488 20.692H14.3749V22H8.07488V13.6H14.2069V14.908H9.63488V20.692ZM15.5139 22V13.6H17.0739V20.68H21.4659V22H15.5139ZM22.0975 22V13.6H23.6575V20.68H28.0495V22H22.0975Z" fill="white"/>
<path d="M6 12L14.5 2L23 12" stroke="#4D02C7" stroke-width="2" stroke-linecap="round" stroke-linejoin="round"/>
<circle cx="14.5" cy="2.5" r="2.25" fill="#4D02C7" stroke="white" stroke-width="0.5"/>
</svg>
