<svg width="50" height="50" viewBox="0 0 50 50" fill="none" xmlns="http://www.w3.org/2000/svg">
<circle cx="24.665" cy="24.665" r="21.665" fill="black"/>
<rect x="13.3992" y="13.3994" width="22.5316" height="23.3982" fill="white"/>
<path d="M11.9548 9.06641C10.3588 9.06641 9.06616 10.3591 9.06616 11.9551V37.9531C9.06616 39.5491 10.3588 40.8417 11.9548 40.8417H37.9528C39.5488 40.8417 40.8415 39.5491 40.8415 37.9531V11.9551C40.8415 10.3591 39.5488 9.06641 37.9528 9.06641H11.9548ZM15.7801 16.2881H22.4404L26.3276 21.8454L31.1374 16.2881H33.2334L27.2698 23.1938L34.5649 33.6201H27.9046L23.5913 27.4534L18.2653 33.6201H16.1355L22.6435 26.1022L15.7801 16.2881ZM19.0016 17.9976L28.7565 31.9021H31.3405L21.5828 17.9976H19.0016Z" fill="black"/>
</svg>
